#Comment line ignore any data following # character 
#Hierarchical Translation and Rotation (.htr) file 
[Header]	
#Header keywords are followed by a single value 
FileType HTR		#Single word string
DataType HTRS		#Translation followed by rotation and scale data
FileVersion 1		#integer
NumSegments 84		#integer
NumFrames 2		#integer
DataFrameRate 30		#integer, data frame rate in this file
EulerRotationOrder ZYX
CalibrationUnits mm
RotationUnits Degrees
GlobalAxisofGravity Y
BoneLengthAxis Y
ScaleFactor 1.00
[SegmentNames&Hierarchy]
#CHILD	PARENT
MASTER GLOBAL
root MASTER
chest root
L_mid_tent01 root
R_mid_tent01 root
spine01 root
Bip01_Neck chest
L_humerus chest
R_humerus chest
weapon_bone chest
Bip01_Head Bip01_Neck
eye_left_bone Bip01_Head
eye_right_bone Bip01_Head
L_forearm L_humerus
L_front_hand L_forearm
L_weapon_bone L_forearm
L_front_hand01_01 L_front_hand
L_front_hand02_01 L_front_hand
L_front_hand03_01 L_front_hand
L_front_hand01_02 L_front_hand01_01
L_front_hand02_02 L_front_hand02_01
L_front_hand03_02 L_front_hand03_01
R_forearm R_humerus
R_front_hand R_forearm
R_weapon_bone R_forearm
R_front_hand01_01 R_front_hand
R_front_hand02_01 R_front_hand
R_front_hand03_01 R_front_hand
R_front_hand01_02 R_front_hand01_01
R_front_hand02_02 R_front_hand02_01
R_front_hand03_02 R_front_hand03_01
null_rope01_connect L_mid_tent01
Rope1_Seg01 null_rope01_connect
Rope1_Seg02 Rope1_Seg01
Rope1_Seg03 Rope1_Seg02
Rope1_Seg04 Rope1_Seg03
Rope1_Seg05 Rope1_Seg04
Rope1_Seg06 Rope1_Seg05
Rope1_Seg07 Rope1_Seg06
Rope1_Seg09 Rope1_Seg07
L_mid_hand01 Rope1_Seg09
L_mid_hand02 Rope1_Seg09
L_mid_hand03 Rope1_Seg09
null_rope02_connect R_mid_tent01
Rope2_Seg01 null_rope02_connect
Rope2_Seg02 Rope2_Seg01
Rope2_Seg03 Rope2_Seg02
Rope2_Seg04 Rope2_Seg03
Rope2_Seg05 Rope2_Seg04
Rope2_Seg06 Rope2_Seg05
Rope2_Seg07 Rope2_Seg06
Rope2_Seg09 Rope2_Seg07
R_mid_hand01 Rope2_Seg09
R_mid_hand02 Rope2_Seg09
R_mid_hand03 Rope2_Seg09
spine02 spine01
spine03 spine02
pelvis spine03
null_rope03_connect pelvis
null_rope04_connect pelvis
Rope3_Seg01 null_rope03_connect
Rope3_Seg02 Rope3_Seg01
Rope3_Seg03 Rope3_Seg02
Rope3_Seg04 Rope3_Seg03
Rope3_Seg05 Rope3_Seg04
Rope3_Seg06 Rope3_Seg05
Rope3_Seg07 Rope3_Seg06
Rope3_Seg08 Rope3_Seg07
Rope3_Seg09 Rope3_Seg08
R_rear_hand01 Rope3_Seg09
R_rear_hand02 Rope3_Seg09
R_rear_hand03 Rope3_Seg09
Rope4_Seg01 null_rope04_connect
Rope4_Seg02 Rope4_Seg01
Rope4_Seg03 Rope4_Seg02
Rope4_Seg04 Rope4_Seg03
Rope4_Seg05 Rope4_Seg04
Rope4_Seg06 Rope4_Seg05
Rope4_Seg07 Rope4_Seg06
Rope4_Seg08 Rope4_Seg07
Rope4_Seg09 Rope4_Seg08
L_rear_hand01 Rope4_Seg09
L_rear_hand02 Rope4_Seg09
L_rear_hand03 Rope4_Seg09
[BasePosition]
#SegmentName Tx, Ty, Tz, Rx, Ry, Rz, BoneLength
MASTER 0.000000 0.000000 0.000000 -90.000000 0.000000 0.000000 10.000000 
root 0.000000 0.000000 0.000000 0.000000 0.000000 0.000000 10.000000 
chest 0.000000 0.000000 0.000000 0.000000 0.000000 0.000000 10.000000 
L_mid_tent01 0.000000 0.000000 0.000000 0.000000 0.000000 0.000000 10.000000 
R_mid_tent01 0.000000 0.000000 0.000000 0.000000 0.000000 0.000000 10.000000 
spine01 0.000000 0.000000 0.000000 0.000000 0.000000 0.000000 10.000000 
Bip01_Neck 0.000000 0.000000 0.000000 0.000000 0.000000 0.000000 10.000000 
L_humerus 0.000000 0.000000 0.000000 0.000000 0.000000 0.000000 10.000000 
R_humerus 0.000000 0.000000 0.000000 0.000000 0.000000 0.000000 10.000000 
weapon_bone 0.000000 0.000000 0.000000 0.000000 0.000000 0.000000 10.000000 
Bip01_Head 0.000000 0.000000 0.000000 0.000000 0.000000 0.000000 10.000000 
eye_left_bone 0.000000 0.000000 0.000000 0.000000 0.000000 0.000000 10.000000 
eye_right_bone 0.000000 0.000000 0.000000 0.000000 0.000000 0.000000 10.000000 
L_forearm 0.000000 0.000000 0.000000 0.000000 0.000000 0.000000 10.000000 
L_front_hand 0.000000 0.000000 0.000000 0.000000 0.000000 0.000000 10.000000 
L_weapon_bone 0.000000 0.000000 0.000000 0.000000 0.000000 0.000000 10.000000 
L_front_hand01_01 0.000000 0.000000 0.000000 0.000000 0.000000 0.000000 10.000000 
L_front_hand02_01 0.000000 0.000000 0.000000 0.000000 0.000000 0.000000 10.000000 
L_front_hand03_01 0.000000 0.000000 0.000000 0.000000 0.000000 0.000000 10.000000 
L_front_hand01_02 0.000000 0.000000 0.000000 0.000000 0.000000 0.000000 10.000000 
L_front_hand02_02 0.000000 0.000000 0.000000 0.000000 0.000000 0.000000 10.000000 
L_front_hand03_02 0.000000 0.000000 0.000000 0.000000 0.000000 0.000000 10.000000 
R_forearm 0.000000 0.000000 0.000000 0.000000 0.000000 0.000000 10.000000 
R_front_hand 0.000000 0.000000 0.000000 0.000000 0.000000 0.000000 10.000000 
R_weapon_bone 0.000000 0.000000 0.000000 0.000000 0.000000 0.000000 10.000000 
R_front_hand01_01 0.000000 0.000000 0.000000 0.000000 0.000000 0.000000 10.000000 
R_front_hand02_01 0.000000 0.000000 0.000000 0.000000 0.000000 0.000000 10.000000 
R_front_hand03_01 0.000000 0.000000 0.000000 0.000000 0.000000 0.000000 10.000000 
R_front_hand01_02 0.000000 0.000000 0.000000 0.000000 0.000000 0.000000 10.000000 
R_front_hand02_02 0.000000 0.000000 0.000000 0.000000 0.000000 0.000000 10.000000 
R_front_hand03_02 0.000000 0.000000 0.000000 0.000000 0.000000 0.000000 10.000000 
null_rope01_connect 0.000000 0.000000 0.000000 0.000000 0.000000 0.000000 10.000000 
Rope1_Seg01 0.000000 0.000000 0.000000 0.000000 0.000000 0.000000 10.000000 
Rope1_Seg02 0.000000 0.000000 0.000000 0.000000 0.000000 0.000000 10.000000 
Rope1_Seg03 0.000000 0.000000 0.000000 0.000000 0.000000 0.000000 10.000000 
Rope1_Seg04 0.000000 0.000000 0.000000 0.000000 0.000000 0.000000 10.000000 
Rope1_Seg05 0.000000 0.000000 0.000000 0.000000 0.000000 0.000000 10.000000 
Rope1_Seg06 0.000000 0.000000 0.000000 0.000000 0.000000 0.000000 10.000000 
Rope1_Seg07 0.000000 0.000000 0.000000 0.000000 0.000000 0.000000 10.000000 
Rope1_Seg09 0.000000 0.000000 0.000000 0.000000 0.000000 0.000000 10.000000 
L_mid_hand01 0.000000 0.000000 0.000000 0.000000 0.000000 0.000000 10.000000 
L_mid_hand02 0.000000 0.000000 0.000000 0.000000 0.000000 0.000000 10.000000 
L_mid_hand03 0.000000 0.000000 0.000000 0.000000 0.000000 0.000000 10.000000 
null_rope02_connect 0.000000 0.000000 0.000000 0.000000 0.000000 0.000000 10.000000 
Rope2_Seg01 0.000000 0.000000 0.000000 0.000000 0.000000 0.000000 10.000000 
Rope2_Seg02 0.000000 0.000000 0.000000 0.000000 0.000000 0.000000 10.000000 
Rope2_Seg03 0.000000 0.000000 0.000000 0.000000 0.000000 0.000000 10.000000 
Rope2_Seg04 0.000000 0.000000 0.000000 0.000000 0.000000 0.000000 10.000000 
Rope2_Seg05 0.000000 0.000000 0.000000 0.000000 0.000000 0.000000 10.000000 
Rope2_Seg06 0.000000 0.000000 0.000000 0.000000 0.000000 0.000000 10.000000 
Rope2_Seg07 0.000000 0.000000 0.000000 0.000000 0.000000 0.000000 10.000000 
Rope2_Seg09 0.000000 0.000000 0.000000 0.000000 0.000000 0.000000 10.000000 
R_mid_hand01 0.000000 0.000000 0.000000 0.000000 0.000000 0.000000 10.000000 
R_mid_hand02 0.000000 0.000000 0.000000 0.000000 0.000000 0.000000 10.000000 
R_mid_hand03 0.000000 0.000000 0.000000 0.000000 0.000000 0.000000 10.000000 
spine02 0.000000 0.000000 0.000000 0.000000 0.000000 0.000000 10.000000 
spine03 0.000000 0.000000 0.000000 0.000000 0.000000 0.000000 10.000000 
pelvis 0.000000 0.000000 0.000000 0.000000 0.000000 0.000000 10.000000 
null_rope03_connect 0.000000 0.000000 0.000000 0.000000 0.000000 0.000000 10.000000 
null_rope04_connect 0.000000 0.000000 0.000000 0.000000 0.000000 0.000000 10.000000 
Rope3_Seg01 0.000000 0.000000 0.000000 0.000000 0.000000 0.000000 10.000000 
Rope3_Seg02 0.000000 0.000000 0.000000 0.000000 0.000000 0.000000 10.000000 
Rope3_Seg03 0.000000 0.000000 0.000000 0.000000 0.000000 0.000000 10.000000 
Rope3_Seg04 0.000000 0.000000 0.000000 0.000000 0.000000 0.000000 10.000000 
Rope3_Seg05 0.000000 0.000000 0.000000 0.000000 0.000000 0.000000 10.000000 
Rope3_Seg06 0.000000 0.000000 0.000000 0.000000 0.000000 0.000000 10.000000 
Rope3_Seg07 0.000000 0.000000 0.000000 0.000000 0.000000 0.000000 10.000000 
Rope3_Seg08 0.000000 0.000000 0.000000 0.000000 0.000000 0.000000 10.000000 
Rope3_Seg09 0.000000 0.000000 0.000000 0.000000 0.000000 0.000000 10.000000 
R_rear_hand01 0.000000 0.000000 0.000000 0.000000 0.000000 0.000000 10.000000 
R_rear_hand02 0.000000 0.000000 0.000000 0.000000 0.000000 0.000000 10.000000 
R_rear_hand03 0.000000 0.000000 0.000000 0.000000 0.000000 0.000000 10.000000 
Rope4_Seg01 0.000000 0.000000 0.000000 0.000000 0.000000 0.000000 10.000000 
Rope4_Seg02 0.000000 0.000000 0.000000 0.000000 0.000000 0.000000 10.000000 
Rope4_Seg03 0.000000 0.000000 0.000000 0.000000 0.000000 0.000000 10.000000 
Rope4_Seg04 0.000000 0.000000 0.000000 0.000000 0.000000 0.000000 10.000000 
Rope4_Seg05 0.000000 0.000000 0.000000 0.000000 0.000000 0.000000 10.000000 
Rope4_Seg06 0.000000 0.000000 0.000000 0.000000 0.000000 0.000000 10.000000 
Rope4_Seg07 0.000000 0.000000 0.000000 0.000000 0.000000 0.000000 10.000000 
Rope4_Seg08 0.000000 0.000000 0.000000 0.000000 0.000000 0.000000 10.000000 
Rope4_Seg09 0.000000 0.000000 0.000000 0.000000 0.000000 0.000000 10.000000 
L_rear_hand01 0.000000 0.000000 0.000000 0.000000 0.000000 0.000000 10.000000 
L_rear_hand02 0.000000 0.000000 0.000000 0.000000 0.000000 0.000000 10.000000 
L_rear_hand03 0.000000 0.000000 0.000000 0.000000 0.000000 0.000000 10.000000 
#Beginning of Data. Separated by tabs
#Fr	Tx	Ty	Tz	Rx	Ry	Rz	SF
[MASTER]
29 -0.000972 6518.811523 0.000000 0.001660 0.001660 0.001660 6518.812012
30 -0.001013 6785.490723 0.000000 0.001660 0.001660 0.001660 6785.490234
[root]
29 -163.281174 438.113129 1619.087891 -100.561478 -0.706236 -77.432899 1685.244629
30 -153.968872 402.486237 1597.767334 -100.110764 -0.976797 -78.261009 1654.860107
[chest]
29 -84.512650 -34.090519 0.000000 -2.604257 1.454038 -177.135254 91.129311
30 -84.512650 -34.090519 0.000000 -3.970942 1.800843 -177.411072 91.129311
[L_mid_tent01]
29 27.299263 22.178947 -249.918854 -22.607393 47.922550 22.029434 252.381821
30 27.299255 22.179001 -249.918884 -22.581192 46.622372 21.565540 252.381851
[R_mid_tent01]
29 23.228794 24.509907 226.238495 170.300247 -15.183558 70.627159 228.744751
30 23.228794 24.509907 226.238495 173.589661 -13.429868 64.474236 228.744751
[spine01]
29 -0.361383 -0.195265 0.000000 0.190142 0.078270 20.901608 0.410763
30 -0.361383 -0.195265 0.000000 0.166836 0.069121 21.027906 0.410763
[Bip01_Neck]
29 165.484543 71.581718 0.000119 175.896118 1.177290 24.871183 180.302734
30 165.484543 71.581718 0.000119 175.896118 1.177290 24.871183 180.302734
[L_humerus]
29 -13.983130 -135.272980 -120.471481 -4.396838 67.697342 85.087364 181.680161
30 -13.983130 -135.272980 -120.471481 -4.508477 67.914154 84.968964 181.680161
[R_humerus]
29 -13.983309 -135.273102 125.287651 92.368958 -65.578911 -5.972167 184.909012
30 -13.983309 -135.273102 125.287651 175.196716 -74.644218 -91.825417 184.909012
[weapon_bone]
29 235.964890 -300.705902 0.000000 0.000000 -89.951546 -128.212341 382.234833
30 235.964890 -300.705902 0.000000 0.000000 -89.951546 -128.212341 382.234833
[Bip01_Head]
29 230.380859 207.405090 -10.601808 -46.488136 11.976340 -56.573750 310.168701
30 232.094131 208.305359 -10.733795 -46.250362 12.797721 -55.783829 312.048096
[eye_left_bone]
29 -24.626970 125.451866 -64.772606 0.000000 -90.000000 -99.840431 143.318359
30 -24.626970 125.451866 -64.772606 0.000000 -90.000000 -99.840431 143.318359
[eye_right_bone]
29 -24.626970 125.451866 64.327362 0.000000 -89.960434 80.159386 143.117676
30 -24.626970 125.451866 64.327362 0.000000 -89.960434 80.159386 143.117676
[L_forearm]
29 322.776093 0.000000 -0.000119 0.000339 -0.002323 -106.619606 322.776093
30 322.776093 0.000000 -0.000119 0.000345 -0.002322 -106.908943 322.776093
[L_front_hand]
29 241.149185 -0.042021 -3.300071 -178.667953 -1.835447 -27.422350 241.171753
30 241.149185 -0.042021 -3.300071 -178.667953 -1.835447 -27.422350 241.171753
[L_weapon_bone]
29 156.183838 0.000000 0.000000 0.000014 0.000007 0.000001 156.183838
30 156.183838 0.000000 0.000000 0.000014 0.000007 0.000001 156.183838
[L_front_hand01_01]
29 86.095154 20.947098 -0.655860 -0.366594 -0.477154 75.385574 88.609184
30 86.095154 20.947098 -0.655860 -0.366594 -0.477154 75.385574 88.609184
[L_front_hand02_01]
29 86.935165 -11.437475 24.513514 154.403519 -59.888931 -61.371990 91.046425
30 86.935165 -11.437475 24.513514 154.403519 -59.888931 -61.371990 91.046425
[L_front_hand03_01]
29 86.637497 -14.123976 -20.424902 -153.913849 58.118122 -62.702866 90.126129
30 86.637497 -14.123976 -20.424902 -153.913849 58.118122 -62.702866 90.126129
[L_front_hand01_02]
29 71.020905 -0.000179 0.000030 0.000334 -0.002323 -106.379684 71.020905
30 71.020905 -0.000179 0.000030 0.000334 -0.002323 -106.379684 71.020905
[L_front_hand02_02]
29 71.020927 -0.000119 0.000060 0.000334 -0.002323 -106.379684 71.020927
30 71.020927 -0.000119 0.000060 0.000334 -0.002323 -106.379684 71.020927
[L_front_hand03_02]
29 71.020905 -0.000060 0.000060 0.000334 -0.002323 -106.379684 71.020905
30 71.020905 -0.000060 0.000060 0.000334 -0.002323 -106.379684 71.020905
[R_forearm]
29 322.776428 -0.000060 0.000030 0.093201 -0.189489 -27.121229 322.776428
30 322.776428 -0.000060 0.000030 0.191215 -0.092300 -65.766968 322.776428
[R_front_hand]
29 238.847015 -0.006795 2.210259 65.694069 11.839185 -22.372593 238.857239
30 238.847015 -0.006795 2.210259 58.699554 12.571147 -26.008192 238.857239
[R_weapon_bone]
29 155.664093 0.002503 -0.000030 0.003487 0.001180 -90.988930 155.664078
30 155.664093 0.002503 -0.000030 0.003487 0.001180 -90.988930 155.664078
[R_front_hand01_01]
29 87.624611 14.231146 22.918642 -154.633499 -59.950619 61.746044 91.683487
30 87.624611 14.231146 22.918642 -154.633499 -59.950619 61.746044 91.683487
[R_front_hand02_01]
29 89.356956 14.367283 -19.491137 154.602661 58.302849 63.744389 92.579636
30 89.356956 14.367283 -19.491137 154.602661 58.302849 63.744389 92.579636
[R_front_hand03_01]
29 87.286232 -22.307278 -0.143439 0.162155 -0.423168 -75.767921 90.091743
30 87.286232 -22.307278 -0.143439 0.162155 -0.423168 -75.767921 90.091743
[R_front_hand01_02]
29 71.020905 0.000060 0.000119 0.002323 -0.000334 106.381714 71.020905
30 71.020905 0.000060 0.000119 0.002323 -0.000334 106.381714 71.020905
[R_front_hand02_02]
29 71.020844 -0.000030 -0.000119 0.002323 -0.000334 106.381714 71.020836
30 71.020844 -0.000030 -0.000119 0.002323 -0.000334 106.381714 71.020836
[R_front_hand03_02]
29 71.020905 0.000000 0.000030 0.002323 -0.000334 106.381714 71.020905
30 71.020905 0.000000 0.000030 0.002323 -0.000334 106.381714 71.020905
[null_rope01_connect]
29 328.732483 0.000000 -0.000238 -151.847244 -36.342064 -140.523758 328.732483
30 328.732483 0.000000 -0.000238 -151.472458 -37.459518 -140.623657 328.732483
[Rope1_Seg01]
29 0.000000 0.000000 0.000000 85.921494 6.391837 -135.507553 0.000000
30 0.000000 0.000000 0.000000 83.488617 6.960763 -133.708298 0.000000
[Rope1_Seg02]
29 139.999863 -0.000179 0.000000 18.559820 -12.246185 -2.253675 139.999863
30 139.999863 -0.000179 0.000000 23.646317 -12.612534 -4.407297 139.999863
[Rope1_Seg03]
29 139.999924 0.000060 -0.000060 15.158244 -29.469927 4.735739 139.999924
30 139.999924 0.000060 -0.000060 18.543188 -30.700089 2.735861 139.999924
[Rope1_Seg04]
29 139.999924 -0.000060 -0.000119 -2.883976 -33.498844 20.378904 139.999924
30 139.999924 -0.000060 -0.000119 -1.548545 -32.146645 18.611595 139.999924
[Rope1_Seg05]
29 139.999832 0.000119 -0.000060 -3.904021 -19.662327 9.239272 139.999832
30 139.999832 0.000119 -0.000060 -2.797179 -18.424955 8.169362 139.999832
[Rope1_Seg06]
29 139.999954 0.000119 -0.000060 -11.004081 -22.846786 5.947290 139.999954
30 139.999954 0.000119 -0.000060 -9.400658 -23.440254 5.792782 139.999954
[Rope1_Seg07]
29 139.999985 0.000060 0.000000 -14.052128 -16.333080 1.318508 139.999985
30 139.999985 0.000060 0.000000 -13.018892 -17.722504 1.853563 139.999985
[Rope1_Seg09]
29 121.602913 0.000119 -0.000089 -89.793175 -1.359789 0.847147 121.602913
30 121.602913 0.000119 -0.000089 -89.793175 -1.359789 0.847147 121.602913
[L_mid_hand01]
29 103.859421 1.038730 8.195221 114.518593 -53.314114 -20.620415 104.187431
30 103.859421 1.038730 8.195221 114.518532 -53.314247 -20.620312 104.187431
[L_mid_hand02]
29 105.572853 -4.139662 -10.864139 -155.067673 38.166626 -52.448818 106.211075
30 105.572853 -4.139662 -10.864139 -155.067673 38.166634 -52.448826 106.211075
[L_mid_hand03]
29 104.641464 17.579376 -3.913581 -10.970130 15.317461 57.626949 106.179977
30 104.641464 17.579376 -3.913581 -10.970130 15.317461 57.626949 106.179977
[null_rope02_connect]
29 328.732849 0.000179 -0.000119 -90.902275 63.267906 69.085014 328.732849
30 328.732849 0.000179 -0.000119 -87.765579 66.706520 65.907928 328.732849
[Rope2_Seg01]
29 0.000072 0.000479 0.000095 52.390053 5.911458 -49.864338 0.000494
30 0.000075 0.000494 0.000093 20.558260 5.130456 -41.648659 0.000508
[Rope2_Seg02]
29 139.999741 -0.000060 -0.000119 -70.378479 14.267742 2.583442 139.999756
30 139.999741 -0.000060 -0.000119 -68.301353 13.939624 12.404085 139.999756
[Rope2_Seg03]
29 140.000107 0.000030 0.000000 -56.621044 3.777807 25.844870 140.000107
30 140.000107 0.000030 0.000000 -23.705013 -8.353601 19.894777 140.000107
[Rope2_Seg04]
29 139.999802 0.000000 -0.000060 -9.346939 -22.337193 18.507729 139.999802
30 139.999802 0.000000 -0.000060 -5.214466 -11.469325 10.309766 139.999802
[Rope2_Seg05]
29 139.999985 -0.000060 0.000119 -3.739369 -12.612687 12.074722 139.999985
30 139.999985 -0.000060 0.000119 -6.207253 -8.559389 13.727685 139.999985
[Rope2_Seg06]
29 139.999893 -0.000030 -0.000119 -3.224871 -13.039105 17.988588 139.999893
30 139.999893 -0.000030 -0.000119 -6.108523 -12.548123 22.230465 139.999893
[Rope2_Seg07]
29 139.999893 0.000060 -0.000060 0.183441 -11.910406 13.940104 139.999893
30 139.999893 0.000060 -0.000060 -0.705370 -10.193125 13.526962 139.999893
[Rope2_Seg09]
29 121.338966 0.000089 -0.000060 136.879395 0.546403 -1.506368 121.338966
30 121.338966 0.000089 -0.000060 136.879395 0.546403 -1.506368 121.338966
[R_mid_hand01]
29 104.680779 11.144459 -10.335981 -39.086605 29.408752 33.883228 105.778534
30 104.680779 11.144459 -10.335981 -39.248650 29.171114 33.551922 105.778534
[R_mid_hand02]
29 104.070427 2.443552 8.231699 71.497040 -38.602627 12.329561 104.424065
30 104.070427 2.443552 8.231699 71.586517 -38.253605 12.182658 104.424065
[R_mid_hand03]
29 106.028137 -11.221827 -5.996406 -169.058853 11.488590 -43.146843 106.788818
30 106.028137 -11.221827 -5.996406 -168.987167 11.419018 -42.774643 106.788818
[spine02]
29 129.756927 0.001550 0.000119 -0.095254 -12.848163 -5.374640 129.756927
30 129.756927 0.001550 0.000119 -0.004398 -12.055676 -6.067989 129.756927
[spine03]
29 78.587433 0.087148 -5.157310 1.845231 3.683246 16.596155 78.756523
30 78.590378 0.086501 -5.128607 1.837484 3.667156 16.526537 78.757584
[pelvis]
29 169.435242 0.051022 0.000000 -0.056956 -0.244864 11.119661 169.435257
30 169.435242 0.051022 0.000000 -0.056334 -0.231261 11.460266 169.435257
[null_rope03_connect]
29 -1.257226 -2.466202 137.391083 109.855766 -67.881248 -62.325314 137.418976
30 -1.257226 -2.466202 137.391083 110.798866 -69.447723 -62.686863 137.418976
[null_rope04_connect]
29 -1.259640 -2.480268 -137.844437 109.855766 -67.881248 -62.325314 137.872513
30 -1.259640 -2.480268 -137.844437 110.798866 -69.447723 -62.686863 137.872513
[Rope3_Seg01]
29 0.000019 -0.000471 0.000000 -154.819275 -55.153183 -56.500679 0.000472
30 0.000016 -0.000487 0.000000 -150.048462 -52.494930 -60.798828 0.000487
[Rope3_Seg02]
29 139.999924 -0.000119 0.000060 -1.219572 -1.719484 -7.117532 139.999924
30 139.999924 -0.000119 0.000060 -0.657224 -2.265075 -6.513616 139.999924
[Rope3_Seg03]
29 139.999924 -0.000119 0.000119 -3.212118 -2.496193 -11.538277 139.999924
30 139.999924 -0.000119 0.000119 -1.841288 -3.634321 -10.977974 139.999924
[Rope3_Seg04]
29 139.999924 0.000119 0.000000 -11.158435 -3.827907 -19.310514 139.999924
30 139.999924 0.000119 0.000000 -6.826522 -6.842111 -19.886360 139.999924
[Rope3_Seg05]
29 139.999924 -0.000238 0.000060 -47.077808 -2.266218 -22.918402 139.999924
30 139.999924 -0.000238 0.000060 -50.186253 -5.817047 -23.853559 139.999924
[Rope3_Seg06]
29 139.999893 -0.000119 -0.000060 -52.434460 16.708672 -9.848820 139.999893
30 139.999893 -0.000119 -0.000060 -71.991684 21.402777 -15.489321 139.999893
[Rope3_Seg07]
29 139.999771 0.000060 -0.000119 -4.810306 23.580448 19.386345 139.999771
30 139.999771 0.000060 -0.000119 1.564081 28.217064 29.901838 139.999771
[Rope3_Seg08]
29 139.999985 -0.000060 0.000000 0.539605 14.810204 14.774878 139.999985
30 139.999985 -0.000060 0.000000 1.060634 12.188207 12.354300 139.999985
[Rope3_Seg09]
29 90.185997 -0.000179 -0.000060 98.365555 -1.357471 -0.847052 90.185997
30 90.185997 -0.000179 -0.000060 159.792526 -1.358243 -0.846482 90.185997
[R_rear_hand01]
29 103.366196 -6.073594 -10.757982 -177.714203 24.565960 -73.910950 104.101845
30 103.366196 -6.073594 -10.757982 -177.714203 24.565960 -73.910950 104.101845
[R_rear_hand02]
29 100.509819 12.039542 -7.992327 -12.874829 36.868488 72.167213 101.543350
30 100.509819 12.039542 -7.992327 -12.874829 36.868488 72.167213 101.543350
[R_rear_hand03]
29 101.539970 5.215704 5.435467 71.484581 -71.816628 21.513813 101.819031
30 101.539970 5.215704 5.435467 71.484581 -71.816628 21.513813 101.819031
[Rope4_Seg01]
29 0.000066 -0.000896 0.000000 38.345245 23.604513 -124.927208 0.000898
30 0.000065 -0.000932 0.000000 33.998768 31.952435 -129.578293 0.000934
[Rope4_Seg02]
29 139.999985 0.000060 0.000119 0.628539 23.937302 3.790827 139.999985
30 139.999985 0.000060 0.000119 0.857967 16.401487 6.559753 139.999985
[Rope4_Seg03]
29 139.999924 0.000000 -0.000238 1.648778 14.009007 2.736040 139.999924
30 139.999924 0.000000 -0.000238 0.133679 5.809270 4.065021 139.999924
[Rope4_Seg04]
29 139.999985 0.000000 0.000119 4.312251 15.622625 0.738414 139.999985
30 139.999985 0.000000 0.000119 1.743649 14.023478 3.017171 139.999985
[Rope4_Seg05]
29 139.999802 -0.000060 -0.000119 4.520991 9.258071 -0.640129 139.999802
30 139.999802 -0.000060 -0.000119 3.027456 11.908897 1.068632 139.999802
[Rope4_Seg06]
29 139.999924 0.000000 0.000060 2.690498 4.160203 -0.509482 139.999924
30 139.999924 0.000000 0.000060 1.668355 4.786370 0.318926 139.999924
[Rope4_Seg07]
29 139.999802 0.000000 0.000000 2.122987 2.726157 -0.462403 139.999802
30 139.999802 0.000000 0.000000 1.227241 2.898796 0.141562 139.999802
[Rope4_Seg08]
29 139.999924 0.000000 0.000119 -0.112156 1.653248 -0.346187 139.999924
30 139.999924 0.000000 0.000119 -0.719733 1.752854 0.050007 139.999924
[Rope4_Seg09]
29 90.185791 0.000060 0.000060 -135.617828 2.228885 0.850567 90.185791
30 90.185791 0.000060 0.000060 -135.617828 2.228885 0.850567 90.185791
[L_rear_hand01]
29 101.696655 -8.392275 -7.654577 -19.915020 -33.950905 119.950104 102.329041
30 101.696655 -8.392275 -7.654577 -19.915020 -33.950905 119.950104 102.329041
[L_rear_hand02]
29 102.726799 -1.568258 5.773216 77.862221 61.878510 165.399200 102.900848
30 102.726799 -1.568258 5.773216 77.862221 61.878510 165.399200 102.900848
[L_rear_hand03]
29 104.552910 9.721220 -10.420293 -173.099182 -23.740307 -117.327896 105.519653
30 104.552910 9.721220 -10.420293 -173.099182 -23.740307 -117.327896 105.519653
